# xmcd
#
# Track frame offsets: 
#        150
#        8556
#        18034
#        25225
#        36543
#        48229
#        61016
#        73338
#        85279
#        102146
#        109942
#        120725
#        132987
#        141870
#        151067
#        161617
#        177569
#        188798
#        201221
#        213355
#        227182
#        239432
#        254151
#        263721
#        272618
#
# Disc length: 3779 seconds
#
# Revision: 0
# Processed by: cddbd v1.4PL0 Copyright (c) Steve Scherf et al.
# Submitted via: ExactAudioCopy v0.90b4
#
DISCID=640ec119
DTITLE=Guilbeau and Parsons - Louisiane Rain
DYEAR=2002
DGENRE=Country
TTITLE0=Your gentle ways of loving Me
TTITLE1=Louisiana Cottonfields
TTITLE2=Wotkin'on a Tugboat
TTITLE3=Into the Darkness of your Mind
TTITLE4=Louisiane Rain
TTITLE5=Sweet Suger Blues
TTITLE6=Walk with Sam
TTITLE7=Sweet Sazannah
TTITLE8=Miles and Cities
TTITLE9=Young Country Girl
TTITLE10=Multiple Heartaches
TTITLE11=Two People
TTITLE12=Desperation's back again
TTITLE13=Happy Cajun man
TTITLE14=Mr. Somebody
TTITLE15=Sweet Rosie
TTITLE16=I get a Hurt on Inside
TTITLE17=Woman's Disgrace
TTITLE18=There's still a little something in your Mind
TTITLE19=Louisana Woman
TTITLE20=Home of the Blues
TTITLE21=Lodi
TTITLE22=World of Dreams
TTITLE23=If it's Me I'm a Fool
TTITLE24=On Pins and Needles
EXTD=
EXTT0=
EXTT1=
EXTT2=
EXTT3=
EXTT4=
EXTT5=
EXTT6=
EXTT7=
EXTT8=
EXTT9=
EXTT10=
EXTT11=
EXTT12=
EXTT13=
EXTT14=
EXTT15=
EXTT16=
EXTT17=
EXTT18=
EXTT19=
EXTT20=
EXTT21=
EXTT22=
EXTT23=
EXTT24=
PLAYORDER=
